<?xml version="1.0" encoding="utf-8"?>
<!-- Generator: Adobe Illustrator 24.0.2, SVG Export Plug-In . SVG Version: 6.00 Build 0)  -->
<svg version="1.1" id="Capa_1" xmlns="http://www.w3.org/2000/svg" xmlns:xlink="http://www.w3.org/1999/xlink" x="0px" y="0px"
	 viewBox="0 0 981.5 245.3" style="enable-background:new 0 0 981.5 245.3;" xml:space="preserve">
<style type="text/css">
	.st0{fill:#F3F4F6;}
	.st1{fill:#F9B31D;}
	.st2{fill-rule:evenodd;clip-rule:evenodd;}
	.st3{fill-rule:evenodd;clip-rule:evenodd;fill:url(#SVGID_1_);}
	.st4{fill-rule:evenodd;clip-rule:evenodd;fill:url(#SVGID_2_);}
	.st5{fill-rule:evenodd;clip-rule:evenodd;fill:url(#SVGID_3_);}
</style>
<rect class="st0" width="981.5" height="245.3"/>
<g>
	<g>
		<path d="M54.8,146.6c0-9.8,7.5-15.4,21.4-16.2l13.5-0.8V126c0-5.2-3.6-8.1-9.5-8.1c-5.2,0-8.9,2.8-9.5,6.7H57.5
			c0.4-10.3,9.7-17.5,23.3-17.5c13.9,0,23,7.1,23,18v37.2H89.9v-8.4h-0.3c-3,5.7-9.6,9-16.6,9C62.6,162.9,54.8,156.3,54.8,146.6z
			 M89.7,142.4v-4l-11.4,0.8c-6,0.4-9.2,2.8-9.2,6.7c0,4,3.4,6.5,8.6,6.5C84.3,152.4,89.7,148.3,89.7,142.4z"/>
		<path d="M111.4,135.1c0-17,8.8-27.7,22.2-27.7c7.8,0,13.9,3.9,16.6,9.9h0.3V87.8h14.4v74.4h-14.2V153h-0.2
			c-2.7,6-8.9,9.9-16.9,9.9C120.1,162.9,111.4,152.2,111.4,135.1z M126.1,135.1c0,9.9,4.8,16.1,12.3,16.1c7.4,0,12.3-6.3,12.3-16.1
			s-4.8-16.1-12.3-16.1C130.9,119,126.1,125.3,126.1,135.1z"/>
		<path d="M205.4,162.2h-16.1l-18.8-54.2h15.4l11.5,41.3h0.3l11.5-41.3h15L205.4,162.2z"/>
		<path d="M277,145.7c-1.6,10.5-11.4,17.5-24.6,17.5c-16.5,0-26.6-10.6-26.6-27.8s10.1-28.3,26-28.3c15.6,0,25.5,10.4,25.5,26.9v4.4
			H240v0.9c0,7.8,5.1,13.1,12.6,13.1c5.4,0,9.7-2.6,11.1-6.7H277z M240.2,129.6h23.4c-0.2-7.1-4.9-11.7-11.5-11.7
			C245.5,117.8,240.7,122.6,240.2,129.6z"/>
		<path d="M285.2,108.1H299v9.7h0.3c3.1-6.8,8.6-10.5,16.9-10.5c12,0,18.8,7.6,18.8,20.2v34.7h-14.4v-31.7c0-7.2-3.3-11.3-10.1-11.3
			c-6.9,0-11,4.9-11,12.1v30.9h-14.4V108.1z"/>
		<path d="M362.8,96v12.1h10v10.9h-10v26.3c0,4.2,2.1,6.2,6.4,6.2c1.3,0,2.7-0.1,3.6-0.2v10.6c-1.5,0.3-4,0.6-6.9,0.6
			c-12.6,0-17.5-4.2-17.5-14.8v-28.7h-7.3v-10.9h7.3V96H362.8z"/>
	</g>
	<g>
		<path class="st1" d="M519.3,202h-81.5c-22.4,0-40.5-18.1-40.5-40.5V83.8c0-22.4,18.1-40.5,40.5-40.5h81.5
			c22.4,0,40.5,18.1,40.5,40.5v77.7C559.8,183.9,541.7,202,519.3,202z"/>
		<g>
			<path d="M434.9,137.7c0,5.7,3.3,9.2,8.5,9.2c5.3,0,8.2-3.4,8.2-9.7V89.8h18v47.5c0,16-9.7,24.9-26,24.9c-16,0-26.1-9.4-26.1-24.5
				H434.9z"/>
			<path d="M496.1,140.2c0.6,4.9,6.1,8.1,12.8,8.1c7,0,11.6-3.2,11.6-7.4c0-3.9-3-5.9-11.1-7.5l-9.3-1.8
				c-13.1-2.5-19.8-9.6-19.8-20.4c0-13.8,11.8-22.7,28.3-22.7c17.8,0,28.3,8.6,28.5,22h-16.6c-0.3-5.2-5.1-8.3-11.6-8.3
				c-6.3,0-10.5,2.9-10.5,7.2c0,3.8,3.2,6,10.6,7.5l9.2,1.7c14,2.7,20.3,9.1,20.3,20.3c0,14.1-11.7,23.1-30,23.1
				c-18.1,0-29.3-8-29.5-21.8H496.1z"/>
		</g>
	</g>
</g>
<g>
	<path class="st2" d="M601.5,133.6c1.4,3,3.1,8.8,2.1,12.6c-1.1,4.6-6,12-9.8,14.1c-4.2,2.4-11.3,1.8-15.8,0.2
		c-8.2-2.9-16.3-8.8-22.5-15c-6.4-6.4-12-13.7-16.3-21.4c-4.5-8.1-6.9-17.7-11.6-25.9c-4.5-7.9-10-15.6-16.5-21.2
		c-2.2-1.9-5.2-3.8-7.9-5.8c-7.7-5.7-19.5-10.1-25-16.5c-3.1-3.6-5.2-10.6-1.9-14.8c4.3-2,7.9-5.6,11.6-7.9c4.7-3,11.4-4.9,19.5-3
		c19-12.9,42.4-22,74.7-20.5c9.9,0.5,19.7,1.6,28.5,4.3c13.3,4.1,22.8,10.5,28.9,21.8c2.1,4,5,8.3,5.6,12.4
		c1.2,8.7-1.5,15.8-2.8,22.5c-0.9,4.5-1.8,9.1-2.1,13.7c-0.7,10.7,1.7,19.5,4.9,27.2c3.1,7.5,7.3,15.3,7.9,24.4
		c0.6,9.2-2.2,14.3-5.4,20.8c-3.2,6.6-6,12.2-10.1,16.9c2.4,1.4,4,4.1,3,7.7c1.9,1.3,2.7,5.3,0.9,7.3c5.4,3.4,4.1,15.2-3,15.6
		c0.2,4.6-1.7,8.7-6,9.4c0.7,8.3-8.7,13.5-14.8,7.9c-1.7,1.3-3.2,2.6-5.6,2.8c-4.4,0.3-7.4-3.2-9.4-5.6c-6,0-9.3-2.9-9.8-8.3
		c-2.8-2.2-5.5-7-3.4-11.6c-2.7-1.6-5.3-5.6-4.3-9.8c0.3-1.4,1.9-2.5,2.1-4.1c0.4-2.5-0.5-4.5,0.2-6.4c1.2-3.3,5-5.9,9-6.2
		c-0.7-9.7,12.2-9.6,16.5-4.7c2.3-4,8.3-3.2,11.6-1.3c0.1-10.1-1.8-17.6-5.6-23.3c-4.2-6.5-11.1-8.3-16.7-12.8
		c-1.7-1.4-2.9-3.8-4.9-4.5C597.5,128.8,600.1,130.6,601.5,133.6z M509.5,30.6c12.8,4.6,22.5,12.7,30.6,22.3
		c6,7,10.2,15.3,13.9,24.4c3.6,8.8,7.6,17.6,13.1,25.3c2.5,3.5,5.7,7,9,10.3c5.9,5.9,11.7,10.1,19.3,14.3
		c-1.5-12.6,3.5-18.5,8.6-25.3c2.1-2.8,5.4-5,6.8-7.9c1.6-3.3,1.2-6.9,0.6-11.3c1.7,3,2,8,0.9,11.1c-1.1,3-5.6,6.7-7.7,9.4
		c-2.7,3.6-4.9,6.8-6.4,10.5c3.8-2.5,9-3.7,12.2-6.8c-1,1.7-2.2,3.4-3.6,4.5c-2.9,2.1-8.8,3.3-9.2,7.3c-0.4,3.3,4.6,7.7,7.3,9.6
		c3.6,2.6,7.4,4.2,10.3,6.4c6,4.7,10.2,12.8,11.6,22c1.3,8.8-0.9,16.5-3.6,22.5c-1,2.2-2.7,3.5-3,6.4c1.1,0.5,2.1-0.7,2.8-1.3
		c2.6-2,4.9-4.6,7.3-7.3c3-3.4,6.4-6.6,8.8-10.5c2.3-3.8,5-7.7,7.1-12.2c1-2.1,1.6-4.7,2.6-7.1c1-2.5,1.9-5,2.1-7.5
		c1-11.7-5.4-21.9-9-31c-2.9-7.4-4.2-16.2-3.9-24.2c0.4-8,2.6-15.6,4.3-23.5c1.1-5.1,1.6-12.5-0.2-17.1c-2.7-7-7.7-15.1-13.1-19.5
		c-5.6-4.5-13.1-7.7-20.5-10.1c-13.6-4.3-29.3-4.8-45.4-3.4c-11.2,1-21.7,3.8-31,7.5C523,21.9,516.1,25.2,509.5,30.6z M486.2,36.4
		c3.9,0.1,7.5,0.5,10.9,1.1c-6.1-0.1-13-0.2-16.9,2.6c-1.1,0.8-2.9,2.9-3.2,4.3c-0.9,4,1.7,7.3,2.8,8.8c5.1,6.7,15.5,10.2,23.1,15.4
		c7.6,5.2,14.5,10.1,20.1,18.2c3.2,4.6,6.6,10.4,9.2,16.1c2.6,5.7,4.7,12.2,7.5,17.8c1.4,2.8,3.4,5.6,5.1,8.3
		c4.3,6.8,9.2,13.3,15.6,18.4c3.8,3,8.1,6.6,12,8.6c5.1,2.5,13.8,5.6,19.9,2.8c4-1.9,8.5-8.6,9.2-13.3c0.9-5.7-2.1-11.1-4.3-13.9
		c-3.4-4.2-9.2-7-13.7-10.5c-14.1-10.8-22.8-23.9-30.2-42.4c-7-17.5-16.9-31.2-31.7-40.9c-2.4-1.6-5.2-3-7.9-4.1
		C505.8,30.4,491.3,28.8,486.2,36.4z M613.1,170.2c-2.5-2.1-4.9-5.2-9.6-4.5c-4.2,0.7-6.3,4.3-4.5,9.2c-6.5-3.9-12.9,5-8.6,11.3
		c-6.8,1.1-2,10.5,1.9,11.1c-3.8,2.8-1.1,9.1,2.6,10.1c-1.5,5.9,3.8,8.3,9.8,7.9c-0.5,5.7,10.3,7.7,11.8,1.7
		c2.1,1.9,3.7,4.2,7.1,3.9c4.1-0.5,7.4-5.1,6.4-10.1c5.1,0,8.3-4.5,5.1-9.4c7.5,0.5,10.6-9.9,3.2-12.4c1.9-2,2.7-6.4,0.2-8.3
		c0.7-3-0.3-6.4-3.4-6.2c-2.6,0.2-5.3,5.1-7.7,7.3c-1.1,1-2.4,2.1-4.1,3.4c-1.3,1-3.8,2.4-3.6,3.6c0.1,1,1.3,0.9,2.1,1.5
		c1.6,1.2,2.3,2.9,2.1,5.6c3.2,1.5,1,7-2.6,6c2.9-0.5,4.7-5,0.4-5.3c2.1-2.5-0.3-6.1-3.9-5.6c2-2.6,1-7.8-1.9-8.6
		c-1.1,0.1-2,0-2.4-0.6c1.1-1.9,4.2,0,4.9,1.1c1.2-1.5,2.6-3.4,3.6-5.6c0.9-1.9,2.4-5,2.4-6.8C624.4,164.6,614,164,613.1,170.2z"/>
	
		<linearGradient id="SVGID_1_" gradientUnits="userSpaceOnUse" x1="361.564" y1="167.9923" x2="456.9294" y2="2.8146" gradientTransform="matrix(-1 0 0 1 1013.04 0)">
		<stop  offset="0" style="stop-color:#AD1515"/>
		<stop  offset="0.2451" style="stop-color:#C8181B"/>
		<stop  offset="0.4975" style="stop-color:#DD1A20"/>
		<stop  offset="0.7485" style="stop-color:#E91C23"/>
		<stop  offset="0.9944" style="stop-color:#ED1C24"/>
	</linearGradient>
	<path class="st3" d="M509.5,30.6c12.8,4.6,22.5,12.7,30.6,22.3c6,7,10.2,15.3,13.9,24.4c3.6,8.8,7.6,17.6,13.1,25.3
		c2.5,3.5,5.7,7,9,10.3c5.9,5.9,11.7,10.1,19.3,14.3c-1.5-12.6,3.5-18.5,8.6-25.3c2.1-2.8,5.4-5,6.8-7.9c1.6-3.3,1.2-6.9,0.6-11.3
		c1.7,3,2,8,0.9,11.1c-1.1,3-5.6,6.7-7.7,9.4c-2.7,3.6-4.9,6.8-6.4,10.5c3.8-2.5,9-3.7,12.2-6.8c-1,1.7-2.2,3.4-3.6,4.5
		c-2.9,2.1-8.8,3.3-9.2,7.3c-0.4,3.3,4.6,7.7,7.3,9.6c3.6,2.6,7.4,4.2,10.3,6.4c6,4.7,10.2,12.8,11.6,22c1.3,8.8-0.9,16.5-3.6,22.5
		c-1,2.2-2.7,3.5-3,6.4c1.1,0.5,2.1-0.7,2.8-1.3c2.6-2,4.9-4.6,7.3-7.3c3-3.4,6.4-6.6,8.8-10.5c2.3-3.8,5-7.7,7.1-12.2
		c1-2.1,1.6-4.7,2.6-7.1c1-2.5,1.9-5,2.1-7.5c1-11.7-5.4-21.9-9-31c-2.9-7.4-4.2-16.2-3.9-24.2c0.4-8,2.6-15.6,4.3-23.5
		c1.1-5.1,1.6-12.5-0.2-17.1c-2.7-7-7.7-15.1-13.1-19.5c-5.6-4.5-13.1-7.7-20.5-10.1c-13.6-4.3-29.3-4.8-45.4-3.4
		c-11.2,1-21.7,3.8-31,7.5C523,21.9,516.1,25.2,509.5,30.6z"/>
	
		<linearGradient id="SVGID_2_" gradientUnits="userSpaceOnUse" x1="411.3708" y1="95.3539" x2="536.2632" y2="95.3539" gradientTransform="matrix(-1 0 0 1 1013.04 0)">
		<stop  offset="0" style="stop-color:#CFE6FF"/>
		<stop  offset="0.6277" style="stop-color:#F1F8FF"/>
		<stop  offset="0.9944" style="stop-color:#FFFFFF"/>
	</linearGradient>
	<path class="st4" d="M486.2,36.4c3.9,0.1,7.5,0.5,10.9,1.1c-6.1-0.1-13-0.2-16.9,2.6c-1.1,0.8-2.9,2.9-3.2,4.3
		c-0.9,4,1.7,7.3,2.8,8.8c5.1,6.7,15.5,10.2,23.1,15.4c7.6,5.2,14.5,10.1,20.1,18.2c3.2,4.6,6.6,10.4,9.2,16.1
		c2.6,5.7,4.7,12.2,7.5,17.8c1.4,2.8,3.4,5.6,5.1,8.3c4.3,6.8,9.2,13.3,15.6,18.4c3.8,3,8.1,6.6,12,8.6c5.1,2.5,13.8,5.6,19.9,2.8
		c4-1.9,8.5-8.6,9.2-13.3c0.9-5.7-2.1-11.1-4.3-13.9c-3.4-4.2-9.2-7-13.7-10.5c-14.1-10.8-22.8-23.9-30.2-42.4
		c-7-17.5-16.9-31.2-31.7-40.9c-2.4-1.6-5.2-3-7.9-4.1C505.8,30.4,491.3,28.8,486.2,36.4z"/>
	
		<radialGradient id="SVGID_3_" cx="398.2635" cy="193.2494" r="27.7393" gradientTransform="matrix(-1 0 0 1 1013.04 0)" gradientUnits="userSpaceOnUse">
		<stop  offset="5.618060e-03" style="stop-color:#FFFFFF"/>
		<stop  offset="0.2902" style="stop-color:#FBFDFF"/>
		<stop  offset="0.5807" style="stop-color:#EFF6FF"/>
		<stop  offset="0.873" style="stop-color:#DAECFF"/>
		<stop  offset="1" style="stop-color:#CFE6FF"/>
	</radialGradient>
	<path class="st5" d="M613.1,170.2c-2.5-2.1-4.9-5.2-9.6-4.5c-4.2,0.7-6.3,4.3-4.5,9.2c-6.5-3.9-12.9,5-8.6,11.3
		c-6.8,1.1-2,10.5,1.9,11.1c-3.8,2.8-1.1,9.1,2.6,10.1c-1.5,5.9,3.8,8.3,9.8,7.9c-0.5,5.7,10.3,7.7,11.8,1.7
		c2.1,1.9,3.7,4.2,7.1,3.9c4.1-0.5,7.4-5.1,6.4-10.1c5.1,0,8.3-4.5,5.1-9.4c7.5,0.5,10.6-9.9,3.2-12.4c1.9-2,2.7-6.4,0.2-8.3
		c0.7-3-0.3-6.4-3.4-6.2c-2.6,0.2-5.3,5.1-7.7,7.3c-1.1,1-2.4,2.1-4.1,3.4c-1.3,1-3.8,2.4-3.6,3.6c0.1,1,1.3,0.9,2.1,1.5
		c1.6,1.2,2.3,2.9,2.1,5.6c3.2,1.5,1,7-2.6,6c2.9-0.5,4.7-5,0.4-5.3c2.1-2.5-0.3-6.1-3.9-5.6c2-2.6,1-7.8-1.9-8.6
		c-1.1,0.1-2,0-2.4-0.6c1.1-1.9,4.2,0,4.9,1.1c1.2-1.5,2.6-3.4,3.6-5.6c0.9-1.9,2.4-5,2.4-6.8C624.4,164.6,614,164,613.1,170.2z"/>
</g>
</svg>
